<?xml version="1.0" encoding="utf-8"?>
<!-- Generator: Adobe Illustrator 19.0.0, SVG Export Plug-In . SVG Version: 6.00 Build 0)  -->
<svg version="1.1" id="Layer_1" xmlns="http://www.w3.org/2000/svg" xmlns:xlink="http://www.w3.org/1999/xlink" x="0px" y="0px"
	 viewBox="88.6 211.5 420.9 420.8" style="enable-background:new 88.6 211.5 420.9 420.8;" xml:space="preserve">
<style type="text/css">
	.st0{fill:#202020;}
	.st1{fill:#212121;}
</style>
<g>
	<path class="st0" d="M509.3,496.5c0,31.8,0.1,63.6,0,95.5c-0.1,23.8-16.4,40.2-40.2,40.2c-64,0.1-128,0.1-191.9,0
		c-23.6,0-40.1-16.7-40.1-40.4c0-14,0-28,0-42c0-3.3,1.3-5.9,4.2-7.4c2.7-1.3,5.5-1.2,8,0.6c2.6,1.9,3.1,4.6,3.1,7.5
		c0,13.3,0,26.7,0,40c0,16.9,9.4,26.3,26.4,26.3c63,0,126,0,188.9,0c17,0,26.4-9.3,26.4-26.2c0-63.1,0-126.3,0-189.4
		c0-16.6-9.5-26-26-26.1c-12,0-24,0-36,0c-6.1,0-9.7-2.9-9.7-7.7c0-4.7,3.7-7.6,9.7-7.6c12.5,0,25,0,37.5,0
		c23.2,0.1,39.8,16.7,39.9,40.2C509.3,432.2,509.3,464.3,509.3,496.5L509.3,496.5z"/>
	<path class="st0" d="M311.4,525.9c-14.3,0.8-27.6-3.4-40.3-10.8c-15.4-9-31-17.5-46.5-26.3c-20-11.2-26.4-31.3-16.5-51.9
		c1.1-2.2,0.9-3.5-0.9-5.1c-2.6-2.4-5.1-4.8-7.4-7.4c-10.3-11.3-10.2-28.1,0.1-38.5c10.4-10.5,27.2-10.9,38.4-0.4
		c10.3,9.7,20.2,19.9,30.1,30c3.5,3.6,3.5,8,0.4,11.1c-3.2,3.3-7.7,3.2-11.5-0.6c-9.1-9-18.2-18.1-27.3-27.2
		c-1.7-1.7-3.3-3.3-5.5-4.3c-5.2-2.4-11.1-1.1-14.5,3.2c-3.6,4.6-3.3,11.4,0.9,16.1c4.5,4.9,9.3,9.5,14.1,14.2
		c7.4,7.4,14.9,14.8,22.3,22.3c4.4,4.5,4.8,8.7,1.3,12.2s-7.7,3-12.2-1.4c-4.4-4.3-8.8-8.6-13.1-13.1c-2.2-2.3-3-1.6-3.8,1.1
		c-2.7,8.9,1.2,19.7,9.8,24.7c18.6,10.7,37.1,21.6,56.2,31.4c16.6,8.6,34.4,7,51.6,1.7c34.9-10.7,55.7-41.5,52.8-77.7
		c-0.7-9.2-4-17.8-7.6-26.3c-10.9-25.3-26.6-47.2-46.6-66.1c-5.3-5-10.8-5.2-16.7-0.9c-5.1,3.7-9.2,3.6-12.2-0.4
		c-2.9-3.9-1.8-8.2,3-12c10-8,25.1-8.2,34.6,0.5c26.4,24.2,46.6,52.8,57.3,87.1c15.7,50-15.9,101.6-68.1,112.7
		C326.5,525.4,319.3,526.3,311.4,525.9z"/>
	<path class="st0" d="M284.9,331.7c7.4-0.1,13.8,2.3,19,7.4c9.4,9.2,18.7,18.5,27.9,27.8c3.8,3.9,3.9,8.2,0.6,11.5
		s-7.6,3.2-11.5-0.6c-8.7-8.5-17.2-17.1-25.8-25.7c-6.6-6.5-11.3-6.9-18.8-1.4c-4.1,3-8.3,2.7-11.1-0.7c-2.9-3.4-2.5-7.6,1.2-11.1
		C271.5,334.2,277.7,331.7,284.9,331.7z"/>
	<path class="st0" d="M250.8,353.5c7.5,0,14,2.6,19.4,7.9c8.5,8.4,17,16.9,25.4,25.4c4.1,4.1,4.4,8.5,1.1,11.8s-7.8,3-11.9-0.9
		c-8.1-8-16-16-24.1-24c-6.3-6.2-11.4-6.6-18.5-1.4c-4.1,3-8.2,2.8-11.1-0.5c-3-3.6-2.5-7.7,1.5-11.4
		C237.3,356,243.9,353.5,250.8,353.5z"/>
	<path class="st1" d="M361,247c0.2,6.9-2.3,10.4-6.9,10.8c-4.6,0.4-7.7-2.6-8.3-8.4c-0.7-6.5-3-12.1-8-16.7
		c-3.8-3.6-4.1-8.2-1.2-11.5c3.1-3.4,7.8-3.3,11.9,0.4C356.2,228.9,360.2,237.7,361,247z"/>
	<path class="st1" d="M96.2,437.6c4.3,0,7.5,2.9,7.7,7.4c0.3,7.2,3.1,13.1,8.3,18c3.6,3.4,3.6,8,0.7,11.1c-3,3.2-7.4,3.4-11.1,0.1
		c-8.5-7.6-13-17.1-13.1-28.5C88.8,440.7,91.7,437.6,96.2,437.6z"/>
	<path class="st0" d="M104,350.8c0,4.2,0.1,8.3,0,12.5c-0.1,4.9-3.2,8.2-7.5,8.3s-7.7-3.1-7.8-8c-0.2-8.8-0.2-17.6,0-26.4
		c0.1-4.9,3.4-8.1,7.7-8.1c4.2,0,7.4,3.4,7.6,8.2C104.1,341.9,104,350.8,104,350.8z"/>
	<path class="st0" d="M316.8,211.6c4.6,0.2,7.7,3.3,7.8,7.5c0.1,4.4-3.1,7.7-8,7.8c-8.8,0.1-17.6,0.1-26.4,0c-4.8-0.1-8.1-3.4-8-7.7
		s3.3-7.3,8.3-7.5c4.3-0.1,8.6,0,13,0C303.4,211.6,312.3,211.5,316.8,211.6z"/>
	<path class="st0" d="M88.8,250.8c-0.3-9,2.4-17,7.8-24.1c3.2-4.2,7.6-5.2,11.2-2.7c3.8,2.7,4.4,7.3,1.1,11.8
		c-4.2,5.7-5.2,12-5.1,18.8c0.1,5.3-2.9,8.6-7.5,8.6c-4.2-0.1-6.9-2.2-7.5-6.4C88.6,254.8,88.8,252.8,88.8,250.8z"/>
	<path class="st0" d="M104,309.2c-0.1,4.9-3.1,8.2-7.5,8.3c-4.4,0.1-7.6-3-7.7-8c-0.2-8.8-0.2-17.6,0-26.4c0.1-4.9,3.4-8.2,7.6-8.1
		c4.3,0.1,7.4,3.4,7.6,8.2c0.1,4.3,0,8.6,0,13C104,296.2,104.1,304.8,104,309.2z"/>
	<path class="st0" d="M88.7,404.6c0-4.5-0.1-9,0-13.5c0.2-4.6,3.3-7.7,7.4-7.7c4.4-0.1,7.7,3.1,7.8,8c0.1,8.8,0.1,17.6,0,26.4
		c-0.1,4.8-3.5,8.1-7.7,8c-4.3-0.1-7.3-3.3-7.5-8.3C88.6,413.2,88.7,404.6,88.7,404.6z"/>
	<path class="st0" d="M361,304.2c-0.1,4.7-3.1,7.7-7.4,7.8c-4.5,0.1-7.8-2.9-7.8-7.8c-0.2-9-0.1-18,0-26.9c0.1-4.7,3.2-7.5,7.6-7.5
		c4.3,0,7.3,2.9,7.6,7.5C361.1,279.6,361.1,299.7,361,304.2z"/>
	<path class="st0" d="M133.3,483.9c-5-0.1-8.2-3.1-8.3-7.5c-0.1-4.3,3.1-7.7,8-7.7c8.8-0.2,17.6-0.1,26.4,0c4.9,0.1,8,3.2,8,7.7
		c0,4.4-3.2,7.3-8.1,7.5C157.1,484,137.6,484,133.3,483.9z"/>
	<path class="st0" d="M141,211.6c4.5,0,9-0.1,13.4,0c4.6,0.2,7.6,3.2,7.6,7.5s-2.9,7.6-7.5,7.7c-9.1,0.2-18.3,0.2-27.4,0
		c-4.5-0.1-7.4-3.5-7.3-7.8c0.1-4.1,2.8-7,7.2-7.4C129.4,211.5,141,211.6,141,211.6z"/>
	<path class="st0" d="M182.3,226.9c-5.2-0.1-8.4-3.2-8.3-7.9c0.1-4.4,3.1-7.3,8.2-7.4c8.5-0.1,16.9-0.1,25.4,0
		c5.5,0.1,8.5,2.8,8.6,7.6c0,4.7-3.1,7.5-8.5,7.7C205.5,226.9,186.6,227,182.3,226.9z"/>
	<path class="st0" d="M249.1,211.6c4.5,0,9-0.1,13.5,0c4.7,0.2,7.7,3.1,7.8,7.4c0.1,4.4-3.1,7.8-7.9,7.8c-8.8,0.1-17.6,0.1-26.4,0
		c-4.9-0.1-8.1-3.4-8.1-7.7s3.2-7.4,8.2-7.6C240.5,211.5,249.1,211.6,249.1,211.6z"/>
</g>
</svg>
