<?xml version="1.0" encoding="utf-8"?>
<!-- Generator: Adobe Illustrator 19.0.0, SVG Export Plug-In . SVG Version: 6.00 Build 0)  -->
<svg version="1.1" id="Layer_1" xmlns="http://www.w3.org/2000/svg" xmlns:xlink="http://www.w3.org/1999/xlink" x="0px" y="0px"
	 viewBox="-87 211.1 420.9 420.8" style="enable-background:new -87 211.1 420.9 420.8;" xml:space="preserve">
<style type="text/css">
	.st0{fill:#212121;}
	.st1{fill:#202020;}
</style>
<g>
	<path class="st0" d="M259.5,315.7c0.2,6.9-2.3,10.4-6.9,10.8s-7.7-2.6-8.3-8.4c-0.7-6.5-3-12.1-8-16.7c-3.8-3.6-4.1-8.2-1.2-11.5
		c3.1-3.4,7.8-3.3,11.9,0.4C254.8,297.6,258.8,306.4,259.5,315.7z"/>
	<path class="st0" d="M-5.3,506.3c4.3,0,7.5,2.9,7.7,7.4c0.3,7.2,3.1,13.1,8.3,18c3.6,3.4,3.6,8,0.7,11.1c-3,3.2-7.4,3.4-11.1,0.1
		c-8.5-7.6-13-17.1-13.1-28.5C-12.8,509.4-9.8,506.3-5.3,506.3z"/>
	<path class="st1" d="M2.5,419.5c0,4.2,0.1,8.3,0,12.5c-0.1,4.9-3.2,8.2-7.5,8.3s-7.7-3.1-7.8-8c-0.2-8.8-0.2-17.6,0-26.4
		c0.1-4.9,3.4-8.1,7.7-8.1c4.2,0,7.4,3.4,7.6,8.2C2.7,410.6,2.5,419.5,2.5,419.5z"/>
	<path class="st1" d="M215.3,280.3c4.6,0.2,7.7,3.3,7.8,7.5c0.1,4.4-3.1,7.7-8,7.8c-8.8,0.1-17.6,0.1-26.4,0c-4.8-0.1-8.1-3.4-8-7.7
		c0.1-4.3,3.3-7.3,8.3-7.5c4.3-0.1,8.6,0,13,0C201.9,280.3,210.8,280.2,215.3,280.3z"/>
	<path class="st1" d="M-12.8,319.5c-0.3-9,2.4-17,7.8-24.1c3.2-4.2,7.6-5.2,11.2-2.7c3.8,2.7,4.4,7.3,1.1,11.8
		c-4.2,5.7-5.2,12-5.1,18.8c0.1,5.3-2.9,8.6-7.5,8.6c-4.2-0.1-6.9-2.2-7.5-6.4C-12.8,323.5-12.8,321.5-12.8,319.5z"/>
	<path class="st1" d="M2.5,377.9c-0.1,4.9-3.1,8.2-7.5,8.3c-4.4,0.1-7.6-3-7.7-8c-0.2-8.8-0.2-17.6,0-26.4c0.1-4.9,3.4-8.2,7.6-8.1
		c4.3,0.1,7.4,3.4,7.6,8.2c0.1,4.3,0,8.6,0,13C2.5,364.9,2.7,373.5,2.5,377.9z"/>
	<path class="st1" d="M-12.8,473.3c0-4.5-0.1-9,0-13.5c0.2-4.6,3.3-7.7,7.4-7.7c4.4-0.1,7.7,3.1,7.8,8c0.1,8.8,0.1,17.6,0,26.4
		c-0.1,4.8-3.5,8.1-7.7,8c-4.3-0.1-7.3-3.3-7.5-8.3C-12.8,481.9-12.8,473.3-12.8,473.3z"/>
	<path class="st1" d="M39.6,280.3c4.5,0,9-0.1,13.4,0c4.6,0.2,7.6,3.2,7.6,7.5c0,4.3-2.9,7.6-7.5,7.7c-9.1,0.2-18.3,0.2-27.4,0
		c-4.5-0.1-7.4-3.5-7.3-7.8c0.1-4.1,2.8-7,7.2-7.4C27.9,280.2,39.6,280.3,39.6,280.3z"/>
	<path class="st1" d="M80.9,295.6c-5.2-0.1-8.4-3.2-8.3-7.9c0.1-4.4,3.1-7.3,8.2-7.4c8.5-0.1,16.9-0.1,25.4,0
		c5.5,0.1,8.5,2.8,8.6,7.6c0,4.7-3.1,7.5-8.5,7.7C104.1,295.6,85.2,295.7,80.9,295.6z"/>
	<path class="st1" d="M147.6,280.3c4.5,0,9-0.1,13.5,0c4.7,0.2,7.7,3.1,7.8,7.4c0.1,4.4-3.1,7.8-7.9,7.8c-8.8,0.1-17.6,0.1-26.4,0
		c-4.9-0.1-8.1-3.4-8.1-7.7c0-4.3,3.2-7.4,8.2-7.6C139,280.2,147.6,280.3,147.6,280.3z"/>
	<path class="st1" d="M248.4,410.7c0-4.2-0.1-8.3,0-12.5c0.1-4.9,3.2-8.2,7.5-8.3s7.7,3.1,7.8,8c0.2,8.8,0.2,17.6,0,26.4
		c-0.1,4.9-3.4,8.1-7.7,8.1c-4.2,0-7.4-3.4-7.6-8.2C248.4,419.6,248.4,410.7,248.4,410.7z"/>
	<path class="st1" d="M34.7,550.9c-4.6-0.2-7.7-3.3-7.8-7.5c-0.1-4.4,3.1-7.7,8-7.8c8.8-0.1,17.6-0.1,26.4,0c4.8,0.1,8.1,3.4,8,7.7
		c-0.1,4.3-3.3,7.3-8.3,7.5c-4.3,0.1-8.6,0-13,0C48.1,550.9,39.2,551,34.7,550.9z"/>
	<path class="st1" d="M262.7,510.7c0.3,9-2.4,17-7.8,24.1c-3.2,4.2-7.6,5.2-11.2,2.7c-3.8-2.7-4.4-7.3-1.1-11.8
		c4.2-5.7,5.2-12,5.1-18.8c-0.1-5.3,2.9-8.6,7.5-8.6c4.2,0.1,6.9,2.2,7.5,6.4C262.9,506.7,262.7,508.7,262.7,510.7z"/>
	<path class="st1" d="M248.4,452.3c0.1-4.9,3.1-8.2,7.5-8.3c4.4-0.1,7.6,3,7.7,8c0.2,8.8,0.2,17.6,0,26.4c-0.1,4.9-3.4,8.2-7.6,8.1
		c-4.3-0.1-7.4-3.4-7.6-8.2c-0.1-4.3,0-8.6,0-13C248.4,465.3,248.4,456.7,248.4,452.3z"/>
	<path class="st1" d="M263.8,356.9c0,4.5,0.1,9,0,13.5c-0.2,4.6-3.3,7.7-7.4,7.7c-4.4,0.1-7.7-3.1-7.8-8c-0.1-8.8-0.1-17.6,0-26.4
		c0.1-4.8,3.5-8.1,7.7-8c4.3,0.1,7.3,3.3,7.5,8.3C263.9,348.3,263.8,356.9,263.8,356.9z"/>
	<path class="st1" d="M210.4,550.9c-4.5,0-9,0.1-13.4,0c-4.6-0.2-7.6-3.2-7.6-7.5s2.9-7.6,7.5-7.7c9.1-0.2,18.3-0.2,27.4,0
		c4.5,0.1,7.4,3.5,7.3,7.8c-0.1,4.1-2.8,7-7.2,7.4C222.1,551,210.4,550.9,210.4,550.9z"/>
	<path class="st1" d="M169.1,535.6c5.2,0.1,8.4,3.2,8.3,7.9c-0.1,4.4-3.1,7.3-8.2,7.4c-8.5,0.1-16.9,0.1-25.4,0
		c-5.5-0.1-8.5-2.8-8.6-7.6c0-4.7,3.1-7.5,8.5-7.7C146,535.6,164.9,535.5,169.1,535.6z"/>
	<path class="st1" d="M102.4,550.9c-4.5,0-9,0.1-13.5,0c-4.7-0.2-7.7-3.1-7.8-7.4c-0.1-4.4,3.1-7.8,7.9-7.8c8.8-0.1,17.6-0.1,26.4,0
		c4.9,0.1,8.1,3.4,8.1,7.7c0,4.3-3.2,7.4-8.2,7.6C111,551,102.4,550.9,102.4,550.9z"/>
</g>
</svg>
